<svg version="1.1" id="Layer_1" xmlns="http://www.w3.org/2000/svg" xmlns:xlink="http://www.w3.org/1999/xlink" x="0px" y="0px"
	 width="100%" viewBox="0 0 512 512" enable-background="new 0 0 512 512" xml:space="preserve">
<path fill="#fff9ec" opacity="1.000000" stroke="none" 
	d="
M513.000000,195.000000 
	C513.000000,235.687561 513.000000,276.375122 512.721191,317.768097 
	C509.385193,321.359009 505.842285,322.353363 501.930664,320.654938 
	C498.912506,319.344513 497.678833,316.831329 497.588898,313.462738 
	C497.372803,305.367828 497.262756,305.566803 489.221313,305.301788 
	C484.264893,305.138428 481.113800,306.075287 478.884552,311.406982 
	C476.273804,317.650970 470.914581,321.932220 463.899292,323.429047 
	C456.128113,325.087158 448.376404,326.845490 440.577271,328.359344 
	C437.359467,328.983887 435.493896,330.398193 434.066162,333.570251 
	C422.841736,358.508392 407.698090,380.606598 387.257751,399.092377 
	C371.200470,413.614227 353.535400,425.369110 333.599976,433.727753 
	C330.726013,434.932770 329.015228,436.830750 328.458679,439.886261 
	C327.450195,445.422974 326.342834,450.941711 325.333252,456.478210 
	C323.679901,465.545013 321.136475,474.590271 312.005524,478.500153 
	C305.856445,481.133209 305.037598,484.882385 305.300476,490.462585 
	C305.630707,497.473663 305.416321,497.912964 312.699219,497.492706 
	C318.090942,497.181549 322.680725,501.410919 321.117676,507.977509 
	C320.684784,509.795990 319.071655,511.333557 318.000000,513.000000 
	C277.312439,513.000000 236.624878,513.000000 195.355423,512.628357 
	C190.231750,502.416290 192.841248,497.892395 203.491974,497.695251 
	C207.468521,497.621643 208.927231,495.984192 208.638031,492.235077 
	C208.535858,490.910553 208.486755,489.553436 208.653717,488.241791 
	C209.237030,483.658997 207.627228,481.014038 203.057220,479.137573 
	C198.326492,477.195099 194.479126,473.637268 192.247864,468.614380 
	C189.105530,461.540588 187.950226,453.947144 186.843155,446.473724 
	C185.751724,439.105743 183.020859,434.765717 175.684265,431.546600 
	C152.808884,421.509277 133.075409,406.895844 116.028305,388.410553 
	C100.982979,372.095886 88.920181,354.055481 80.292404,333.684082 
	C79.046722,330.742798 77.150620,329.099487 74.164307,328.518921 
	C68.636253,327.444183 63.105419,326.382721 57.568165,325.356598 
	C47.801220,323.546692 38.851021,320.511749 34.505169,310.362030 
	C32.393391,305.429993 27.366205,303.795319 19.595236,305.477264 
	C14.820362,306.510681 16.596382,310.377747 16.418434,313.220245 
	C16.032019,319.392792 11.269858,322.966217 5.518402,321.049561 
	C3.957903,320.529541 2.503234,319.691895 0.999998,319.000000 
	C1.000000,277.979095 1.000000,236.958206 1.370203,195.353149 
	C11.440005,190.173508 15.890167,192.849701 16.364239,203.571777 
	C16.430143,205.062347 16.285791,206.584320 17.608213,207.714432 
	C21.179848,210.766678 32.460007,208.084824 34.485088,203.729553 
	C37.670135,196.879578 42.646477,192.139206 50.242603,190.524124 
	C57.862495,188.904007 65.464233,187.195618 73.099144,185.650528 
	C75.998672,185.063736 78.318001,184.213226 79.661034,181.131195 
	C90.745560,155.694183 106.189667,133.443832 126.901443,114.720764 
	C143.001465,100.166634 160.704376,88.416374 180.673416,80.043983 
	C183.450226,78.879753 184.913513,76.939163 185.465271,74.165047 
	C186.564560,68.638237 187.635437,63.105106 188.645523,57.561371 
	C190.430344,47.765491 193.461090,38.818935 203.630630,34.451988 
	C208.590485,32.322155 210.250427,27.283442 208.537766,19.569347 
	C207.487793,14.840077 203.569550,16.645407 200.734406,16.452299 
	C194.335037,16.016430 190.834549,10.961204 193.148407,5.068927 
	C193.692322,3.683837 194.378998,2.354818 195.000000,1.000000 
	C235.687561,1.000000 276.375122,1.000000 317.783356,1.264347 
	C321.298157,4.610349 322.400421,8.138063 320.681274,12.052312 
	C319.370697,15.036232 316.937561,16.360188 313.520874,16.425152 
	C305.376465,16.579996 305.582642,16.708168 305.301331,24.810846 
	C305.128662,29.783762 306.066620,32.939106 311.429443,35.101334 
	C317.754547,37.651539 321.980164,42.998642 323.439575,50.058228 
	C325.048737,57.842327 326.815857,65.594398 328.361969,73.390610 
	C328.988861,76.551857 330.278412,78.787109 333.451538,80.128654 
	C358.097748,90.548630 379.407562,105.589966 397.681244,125.267281 
	C412.898285,141.653122 425.029541,159.848984 433.755035,180.365494 
	C434.983856,183.254852 436.899689,184.941727 439.926453,185.511734 
	C445.458527,186.553619 450.980743,187.648575 456.516174,188.671997 
	C465.569763,190.345871 474.707977,192.840973 478.545502,201.982620 
	C481.176270,208.249557 484.957825,208.923599 490.488220,208.695572 
	C497.474304,208.407532 497.529602,208.569138 497.626770,201.751297 
	C497.739014,193.876862 503.240906,190.443359 510.244080,193.861633 
	C511.135559,194.296753 512.080078,194.623199 513.000000,195.000000 
M384.522034,135.960480 
	C378.297302,130.973236 373.080475,124.895210 366.804352,119.929482 
	C354.482208,110.180115 341.191101,102.189194 326.820526,95.818024 
	C318.431000,92.098541 309.586060,89.812393 301.059143,86.567200 
	C296.592804,84.867393 294.856171,81.573723 295.820099,77.094139 
	C296.778351,72.640709 299.628937,70.332840 304.448700,70.560699 
	C306.164520,70.641823 308.032684,71.432770 310.111084,70.070122 
	C309.296448,65.787598 308.460358,61.416817 307.634430,57.044136 
	C306.605682,51.598015 304.328064,49.439217 298.912811,49.427105 
	C270.918152,49.364521 242.923294,49.396889 214.928513,49.373966 
	C211.884308,49.371475 208.928482,50.188583 207.746338,52.980370 
	C205.386292,58.553944 204.793442,64.588379 203.605392,70.921181 
	C205.771133,70.722618 207.129608,70.804794 208.365128,70.453957 
	C228.761765,64.662071 249.647720,64.165268 270.621307,64.659775 
	C277.282990,64.816841 280.369415,67.679749 280.347168,73.408234 
	C280.326874,78.630104 277.040466,81.335388 270.612213,81.368912 
	C256.157227,81.444298 241.672058,80.797470 227.354568,83.636780 
	C190.059265,91.032761 157.588821,107.213081 131.004883,134.958817 
	C119.032013,147.454941 108.793221,161.026535 100.949486,176.325104 
	C84.940208,207.549866 78.570007,240.662018 82.287376,275.681976 
	C84.576447,297.246490 90.699890,317.646637 100.588150,336.849609 
	C110.389778,355.884369 123.142273,372.723694 139.185623,387.078918 
	C153.302338,399.710266 168.838699,409.981903 186.119690,417.738678 
	C194.785995,421.628632 203.916565,424.129700 212.783539,427.406342 
	C217.231476,429.050018 219.211304,432.287628 218.156586,436.771667 
	C217.160294,441.007294 214.525406,443.728302 209.590225,443.436218 
	C207.872238,443.334534 206.001144,442.612854 204.187195,443.725769 
	C204.160706,448.948700 205.734528,453.897247 206.788254,458.885040 
	C207.595062,462.704041 210.652817,464.596863 214.604294,464.599304 
	C242.932297,464.616913 271.260315,464.625366 299.588257,464.577759 
	C303.248749,464.571594 306.183868,462.973389 307.100281,459.216370 
	C308.345062,454.113068 309.244598,448.925476 310.344543,443.516602 
	C309.309235,443.365540 308.670349,443.134003 308.072876,443.213501 
	C306.763123,443.387817 305.456543,443.653564 304.179657,443.997162 
	C283.882355,449.459106 263.149780,449.846558 242.339355,449.311646 
	C241.521301,449.290619 240.689270,449.118103 239.897125,448.896698 
	C235.122864,447.562408 232.790375,444.129150 233.740768,439.046173 
	C234.541641,434.762848 237.472702,432.615784 241.892975,432.630890 
	C244.892365,432.641113 247.898605,432.494263 250.890167,432.646301 
	C270.524597,433.644135 289.769714,430.957275 308.370697,425.022308 
	C336.956787,415.901398 361.981903,400.897034 383.031525,379.059814 
	C399.341644,362.139496 411.965698,343.049530 420.485535,321.359009 
	C430.963562,294.683136 434.920532,266.968842 431.716156,238.309311 
	C429.708496,220.353241 425.144989,203.170502 417.919525,186.623230 
	C409.791809,168.009613 398.718658,151.389053 384.522034,135.960480 
M464.633362,256.500183 
	C464.631439,242.836136 464.606567,229.172043 464.643860,215.508102 
	C464.653076,212.132996 464.043671,208.747910 460.676208,207.568939 
	C455.151184,205.634598 449.410736,204.180191 442.690338,204.410858 
	C452.047913,239.932022 451.781189,274.978973 442.496521,310.797577 
	C448.089233,309.536743 452.235107,308.487549 456.427979,307.683533 
	C462.817291,306.458374 464.588135,304.534393 464.610870,297.992310 
	C464.657745,284.495087 464.630157,270.997589 464.633362,256.500183 
M53.855064,207.261856 
	C50.638248,208.832642 49.387215,211.537552 49.387600,214.975784 
	C49.390755,243.088760 49.384262,271.201752 49.400551,299.314728 
	C49.402691,303.006714 50.971443,306.079163 54.583309,306.977020 
	C59.794205,308.272400 65.026260,309.878845 71.295425,309.745026 
	C62.006607,274.363220 62.200176,239.231827 71.243439,203.940933 
	C64.724266,204.062561 59.743156,206.108963 53.855064,207.261856 
M281.303864,481.377380 
	C265.976868,481.375824 250.649887,481.370941 235.322906,481.373810 
	C225.277084,481.375702 225.508911,481.386047 225.278763,491.452637 
	C225.165482,496.406952 227.026321,497.768799 231.732071,497.704529 
	C247.555862,497.488281 263.384460,497.626068 279.211243,497.628967 
	C288.682739,497.630707 288.476471,497.626160 288.713074,488.020508 
	C288.832916,483.154297 287.435059,480.638153 281.303864,481.377380 
M481.377869,232.727173 
	C481.377197,247.712372 481.376648,262.697571 481.375824,277.682770 
	C481.375214,289.278595 481.370941,289.186127 492.931976,288.676208 
	C496.350952,288.525391 497.660126,287.151093 497.648010,283.805054 
	C497.583435,265.989594 497.568085,248.173492 497.658356,230.358215 
	C497.677002,226.673737 496.116394,225.176834 492.551147,225.379410 
	C490.891937,225.473694 489.208099,225.518494 487.559784,225.348969 
	C482.665436,224.845566 480.808258,227.132141 481.377869,232.727173 
M16.473633,285.780243 
	C18.666042,290.845337 23.119680,287.993195 26.548559,288.567993 
	C30.998009,289.313873 32.762936,287.290833 32.704399,282.657837 
	C32.504555,266.841248 32.629642,251.020584 32.626072,235.201477 
	C32.623814,225.205933 32.618950,225.375961 22.357067,225.308014 
	C17.800137,225.277832 16.239382,226.907532 16.291485,231.468796 
	C16.494984,249.283829 16.393887,267.102356 16.473633,285.780243 
M270.497559,16.397108 
	C258.356842,16.400589 246.216110,16.405174 234.075378,16.407177 
	C225.361725,16.408613 225.361755,16.407070 225.377274,25.284134 
	C225.377853,25.616756 225.414886,25.954214 225.372345,26.281275 
	C224.758987,30.996809 226.627258,32.790592 231.542358,32.712914 
	C247.005402,32.468533 262.474792,32.628544 277.941742,32.628056 
	C289.167389,32.627701 289.046234,32.628723 288.689667,21.293646 
	C288.571411,17.535112 286.927795,16.304668 283.469666,16.392824 
	C279.480988,16.494509 275.487427,16.404324 270.497559,16.397108 
z"/>
<path fill="#fff9ec" opacity="1.000000" stroke="none" 
	d="
M252.333374,222.144562 
	C254.681503,224.389297 256.353119,223.611908 258.020020,221.664841 
	C267.530945,210.555283 280.025055,207.409409 293.922638,208.828506 
	C301.744873,209.627228 304.592804,212.873459 305.284698,220.812515 
	C306.489105,234.632767 302.938599,246.802704 292.136810,256.176727 
	C289.756744,258.242188 290.334961,259.908508 291.994659,262.086365 
	C297.170013,268.877319 298.728027,276.753204 298.346161,285.105591 
	C297.955292,293.655090 294.704407,297.542694 286.508789,298.243256 
	C277.518585,299.011749 268.898987,297.389862 261.599121,291.674683 
	C259.035706,289.667725 257.601715,290.395660 255.810287,292.466400 
	C246.382629,303.363861 234.001404,306.386688 220.302216,305.205353 
	C212.647934,304.545258 209.467255,301.214874 208.762253,293.337372 
	C207.531250,279.582458 210.752716,267.295868 221.738129,257.975739 
	C224.439850,255.683594 223.222076,253.683060 221.681320,251.504456 
	C216.764938,244.552750 215.188721,236.687866 215.669418,228.353806 
	C216.161606,219.820480 219.953918,216.069809 228.489410,215.645157 
	C237.002213,215.221649 245.017471,216.852585 252.333374,222.144562 
M232.001038,271.473511 
	C229.011169,275.103851 226.534012,278.973694 225.722336,283.743561 
	C225.051544,287.685455 226.340973,289.012756 230.321152,288.147369 
	C240.612228,285.909851 246.903702,279.637360 249.148087,269.341614 
	C250.018814,265.347260 248.705429,264.052704 244.757767,264.701508 
	C239.977692,265.487122 236.143326,268.020508 232.001038,271.473511 
M269.818329,249.022018 
	C279.919708,246.705765 285.844574,240.260666 288.181396,230.337250 
	C289.090729,226.475784 287.636475,225.046143 283.721466,225.772568 
	C273.846863,227.604752 266.478973,235.105118 264.722626,244.997665 
	C264.065491,248.698914 265.550751,250.000305 269.818329,249.022018 
M278.659912,272.851654 
	C276.579742,270.239014 274.300385,267.868378 271.020813,266.772614 
	C269.710388,266.334778 268.403900,266.256653 267.301331,267.303131 
	C266.170929,268.376038 266.363098,269.675812 266.733093,270.995758 
	C268.225128,276.318634 274.811554,280.769287 280.796814,280.414398 
	C281.120056,277.865082 280.307770,275.591095 278.659912,272.851654 
M239.941757,234.549515 
	C237.875977,233.406387 235.645035,233.118805 233.320221,233.081604 
	C233.610519,239.535553 237.621155,245.466858 242.663544,247.149689 
	C244.173676,247.653656 245.627823,247.861435 246.810898,246.562897 
	C247.829941,245.444412 247.594879,244.130188 247.185303,242.800949 
	C246.085098,239.230240 243.232773,237.157349 239.941757,234.549515 
z"/>
<path fill="#fff9ec" opacity="1.000000" stroke="none" 
	d="
M210.986938,106.624123 
	C234.193008,99.504929 256.850006,110.837181 263.430420,132.347458 
	C270.773071,156.349426 255.292160,181.280411 230.856842,184.728363 
	C214.405090,187.049789 194.983307,177.499908 188.109833,161.464325 
	C181.334473,145.657608 184.853806,126.470322 197.565903,114.872139 
	C201.470840,111.309380 205.816895,108.742676 210.986938,106.624123 
M212.091782,164.467102 
	C226.767990,173.130356 240.567352,165.243912 245.769608,155.266510 
	C251.239243,144.776337 247.790207,131.818192 237.188095,124.703346 
	C228.281067,118.726021 214.227341,120.974510 207.306046,129.382141 
	C198.569504,139.994827 199.234329,154.228317 212.091782,164.467102 
z"/>
<path fill="#fff9ec" opacity="1.000000" stroke="none" 
	d="
M107.836060,272.162659 
	C116.523582,254.946320 131.611389,247.533051 148.128510,248.776932 
	C165.599091,250.092636 178.658264,261.173798 183.530167,277.747925 
	C188.720230,295.404419 181.008835,315.116699 165.562775,323.677155 
	C147.584763,333.640869 127.570496,330.537598 114.480881,315.777527 
	C102.975731,302.804108 102.232979,288.150482 107.836060,272.162659 
M139.637268,311.771057 
	C149.141373,314.386658 156.759445,310.764984 162.740585,303.837158 
	C168.719421,296.912018 169.746704,288.743805 166.398346,280.107300 
	C163.071548,271.526428 152.779770,264.883057 143.476532,265.402557 
	C134.412659,265.908630 124.862617,274.077698 122.275749,282.543671 
	C118.328300,295.462341 127.144707,308.898071 139.637268,311.771057 
z"/>
<path fill="#FAF9F6" opacity="1.000000" stroke="none" 
	d="
M396.019348,255.075409 
	C383.404694,265.924591 369.468231,268.028290 354.458740,262.394684 
	C340.216431,257.048981 332.291595,246.450394 329.521484,231.497513 
	C325.922577,212.070663 338.073029,194.386490 353.147156,187.709869 
	C378.766479,176.362534 409.127502,195.463913 409.462891,223.395966 
	C409.613922,235.973984 405.685883,246.450836 396.019348,255.075409 
M378.138489,203.402985 
	C368.189270,199.222031 359.425323,201.520889 352.231720,209.025986 
	C345.606934,215.937622 344.096222,224.273132 347.476471,233.397156 
	C350.778564,242.310287 361.113281,249.186127 370.529694,248.603790 
	C379.563232,248.045135 389.409424,239.979172 391.610779,231.334305 
	C394.649292,219.401718 390.211945,209.738449 378.138489,203.402985 
z"/>
<path fill="#fff9ec" opacity="1.000000" stroke="none" 
	d="
M311.791504,403.011993 
	C296.136780,411.922241 280.803436,412.211639 265.922333,402.419464 
	C252.118164,393.335907 245.968063,376.318726 249.819061,359.552521 
	C253.498093,343.535004 266.334259,332.071716 282.523254,329.490295 
	C309.117218,325.249817 331.780701,346.109161 329.261475,373.671387 
	C328.145325,385.882751 321.753326,395.410339 311.791504,403.011993 
M274.370331,387.148956 
	C281.544189,393.188354 289.609131,394.393951 298.084381,390.726135 
	C307.304199,386.736145 312.575043,379.267273 312.471893,369.306152 
	C312.312897,353.945038 300.628296,345.357147 288.114380,345.743774 
	C278.193604,346.050354 270.595001,351.705872 266.945557,361.437897 
	C263.196960,371.434357 266.548767,379.615997 274.370331,387.148956 
z"/>
<path fill="#fff9ec" opacity="1.000000" stroke="none" 
	d="
M160.265778,215.659042 
	C156.327148,229.469757 140.586166,237.115616 126.908516,231.410156 
	C116.866936,227.221420 110.694954,215.824341 112.754318,203.991318 
	C114.622681,193.255814 124.339180,185.372208 134.975098,184.516800 
	C152.323242,183.121506 164.654373,199.818375 160.265778,215.659042 
M143.521393,207.129150 
	C142.022705,203.745728 140.040527,200.938217 135.746826,201.604202 
	C131.918793,202.197952 129.036209,205.905304 129.472275,209.400787 
	C129.864243,212.542740 134.070999,216.391312 137.053284,216.336304 
	C140.678406,216.269440 143.405014,212.754028 143.521393,207.129150 
z"/>
<path fill="#fff9ec" opacity="1.000000" stroke="none" 
	d="
M329.364380,134.279800 
	C329.376099,149.388275 322.824463,157.876328 309.080872,160.615768 
	C291.811340,164.058044 278.469147,148.585632 280.911713,132.931458 
	C282.449860,123.073792 288.245728,115.813515 298.393494,113.355072 
	C307.904236,111.050957 316.614990,112.959465 323.481171,120.355881 
	C326.944885,124.087082 328.770508,128.738586 329.364380,134.279800 
M307.573151,129.930054 
	C303.787445,128.538025 301.196533,130.266144 299.143555,133.232666 
	C297.768280,135.219986 296.947968,137.265717 298.491272,139.644501 
	C300.218353,142.306534 302.332581,144.263077 305.723053,143.819336 
	C308.945007,143.397614 311.395050,141.434906 312.245026,138.449631 
	C313.270691,134.847214 311.425079,132.086533 307.573151,129.930054 
z"/>
<path fill="#fff9ec" opacity="1.000000" stroke="none" 
	d="
M361.462341,286.369202 
	C376.701202,275.452057 394.908936,280.880066 400.454102,297.661224 
	C404.831116,310.907074 397.160950,324.906921 383.403961,328.781860 
	C370.326843,332.465332 356.552734,323.831848 353.544159,310.357422 
	C351.415100,300.821991 354.265015,293.120667 361.462341,286.369202 
M376.639038,312.563293 
	C378.023804,312.683167 379.241699,312.185822 380.410492,311.527740 
	C383.468658,309.805908 385.121094,307.160065 384.376434,303.719574 
	C383.643219,300.331757 380.888153,298.347168 377.708252,297.743591 
	C374.604340,297.154449 372.331360,299.305847 370.959198,301.861298 
	C369.282135,304.984467 369.953857,307.992737 372.641113,310.363434 
	C373.608856,311.217163 374.819946,311.795074 376.639038,312.563293 
z"/>
<path fill="#fff9ec" opacity="1.000000" stroke="none" 
	d="
M186.476471,387.052856 
	C180.148224,369.924133 190.101929,354.422424 207.123672,352.923401 
	C223.104111,351.516174 235.234421,364.537170 233.084641,380.828217 
	C231.780518,390.711060 225.823959,397.977570 215.743271,400.583160 
	C206.212845,403.046570 197.664597,400.863800 190.565109,393.747772 
	C188.743576,391.921997 187.793594,389.621521 186.476471,387.052856 
M215.715179,374.689148 
	C213.554916,370.465271 210.107452,368.833954 205.851227,370.924957 
	C202.808273,372.419983 200.494659,375.024689 201.729416,379.039917 
	C202.834961,382.635010 207.018097,385.514099 210.203598,384.375092 
	C214.266174,382.922516 216.880661,380.138000 215.715179,374.689148 
z"/>
</svg>